<svg height="100%" version="1.1" width="100%" xmlns="http://www.w3.org/2000/svg" preserveAspectRatio="xMidYMid meet" viewBox="0 0 600 442" xmlns:xlink="http://www.w3.org/1999/xlink"><desc>Created with Snap</desc><defs/><g id="root" contentwidth="320.5" contentheight="134.60000000000002">
          <rect class="background" height="2000%" width="2000%" y="-1000%" x="-1000%" style="" fill="#ffffff"/>
          <g class="content" id="content" transform="matrix(1,0,0,1,16.75,5.7)">
            <g class="icon">
            <svg height="55" version="1.1" width="62" xmlns="http://www.w3.org/2000/svg" x="209" y="150" preserveAspectRatio="none" transform="matrix(1,0,0,1,0,0)"><desc>Created with Snap</desc><defs/><svg xmlns="http://www.w3.org/2000/svg" viewBox="209 150 62 55"><rect id="prefix-kEb-矩形" fill="#EAEAEA" x="209" y="150" width="62" height="55" rx="10"/></svg></svg><svg height="31" version="1.1" width="48" xmlns="http://www.w3.org/2000/svg" x="215" y="159" preserveAspectRatio="none" transform="matrix(1,0,0,1,0,0)"><desc>Created with Snap</desc><defs/><svg xmlns="http://www.w3.org/2000/svg" viewBox="215 159 48 31"><path d="M263.7 159.008v30.821h-48.4v-30.821h48.4Zm-42.36 21.786a1.5 1.5 0 1 0 0 3 1.5 1.5 0 0 0 0-3Zm14.261-16.682h-14.26l-.145.007a1.5 1.5 0 0 0-1.355 1.493V177.5l.007.144A1.5 1.5 0 0 0 221.34 179l.144-.007a1.5 1.5 0 0 0 1.356-1.493l-.001-10.388H235.6l.144-.006a1.5 1.5 0 0 0-.144-2.994Z" id="prefix-JOG-形状结合" fill="#FFC50D"/></svg></svg><svg height="57" version="1.1" width="66" xmlns="http://www.w3.org/2000/svg" x="206" y="148" preserveAspectRatio="none" transform="matrix(1,0,0,1,0,0)"><desc>Created with Snap</desc><defs/><svg xmlns="http://www.w3.org/2000/svg" viewBox="206 148 66 57"><path d="M265.9 148.002c3.644 0 6.6 2.957 6.6 6.603v44.03a6.603 6.603 0 0 1-6.6 6.604h-52.8a6.603 6.603 0 0 1-6.6-6.603v-44.031a6.603 6.603 0 0 1 6.6-6.603ZM268.099 192H265.9v.03h-52.8V192h-2.201l.001 6.636c0 1.163.903 2.116 2.043 2.197l.157.006h52.8c1.213 0 2.2-.988 2.2-2.203l-.001-6.636Zm-2.199-39.598h-52.8c-1.213 0-2.2.987-2.2 2.203L210.899 188h2.201v-31.192h52.8V188h2.199l.001-33.395a2.204 2.204 0 0 0-2.043-2.198l-.157-.005Zm-4.4 8.805h-44v26.422h44v-26.422Z" id="prefix-Znt-形状结合" fill="#333" fill-rule="nonzero"/></svg></svg><svg height="72" version="1.1" width="72" xmlns="http://www.w3.org/2000/svg" x="124" y="192" preserveAspectRatio="none" transform="matrix(1,0,0,1,0,0)"><desc>Created with Snap</desc><defs/><svg xmlns="http://www.w3.org/2000/svg" viewBox="124 192 72 72"><path d="M195.92 228c0 19.838-16.082 35.92-35.92 35.92-19.837 0-35.918-16.082-35.918-35.92s16.081-35.92 35.919-35.92c19.837 0 35.919 16.082 35.919 35.92" id="prefix-_0S-Fill-3" fill="#4FC4E8"/></svg></svg><svg height="46" version="1.1" width="40" xmlns="http://www.w3.org/2000/svg" x="156" y="197" preserveAspectRatio="none" transform="matrix(1,0,0,1,0,0)"><desc>Created with Snap</desc><defs/><svg xmlns="http://www.w3.org/2000/svg" viewBox="156 197 40 46"><path d="M193.376 241.301c-2.915 1.992-8.626.347-11.006-1.839-1.61-1.478-2.465-3.614-2.935-5.75-.694-3.146-.791-6.41-1.743-9.505-.487-1.582-1.368-3.095-2.728-4.04-1.459-1.013-3.312-1.275-5.088-1.28-4.812-.012-10.11.714-12.84-4.222-1.565-2.827-1.518-6.409-.151-9.336 3.52-7.538 13.297-8.94 20.697-8.657 0 0 9.496 3.93 15.402 17.089 5.906 13.159.392 27.54.392 27.54" id="prefix-S4t-Fill-7" fill="#A5D621"/></svg></svg><svg height="49" version="1.1" width="25" xmlns="http://www.w3.org/2000/svg" x="124" y="212" preserveAspectRatio="none" transform="matrix(1,0,0,1,0,0)"><desc>Created with Snap</desc><defs/><svg xmlns="http://www.w3.org/2000/svg" viewBox="124 212 25 49"><path d="M147.8 261.793c.635.269.83-4.9.841-5.456.074-3.491-1.333-6.317-4.08-8.5-2.427-1.929-5.337-3.135-7.964-4.78-1.344-.843-2.665-1.86-3.342-3.294-.599-1.267-.63-2.723-.548-4.122.26-4.445 1.572-8.919.881-13.385-.608-3.928-2.778-7.483-5.939-9.879.004.003-1.596 3.829-1.664 4.055-1.071 3.57-1.953 7.839-1.903 11.568.11 8.207 2.07 14.198 7.43 21.878 3.742 5.362 9.764 9.149 16.288 11.915" id="prefix-63v-Fill-11" fill="#A5D621"/></svg></svg><svg height="15" version="1.1" width="12" xmlns="http://www.w3.org/2000/svg" x="159" y="236" preserveAspectRatio="none" transform="matrix(1,0,0,1,0,0)"><desc>Created with Snap</desc><defs/><svg xmlns="http://www.w3.org/2000/svg" viewBox="159 236 12 15"><path d="M159.942 238.648c-.05.784.032 1.677.072 2.563.11 2.458-1.995 7.163-.166 8.917 1.814 1.739 6.556.837 8.424-.342 2.856-1.804 3.98-5.712 2.789-8.84-.974-2.557-5.522-4.614-8.06-4.783-2.37-.157-2.964.958-3.06 2.485" id="prefix-pdL-Fill-15" fill="#A5D621"/></svg></svg><svg height="106" version="1.1" width="77" xmlns="http://www.w3.org/2000/svg" x="123" y="159" preserveAspectRatio="none" transform="matrix(1,0,0,1,0,0)"><desc>Created with Snap</desc><defs/><svg xmlns="http://www.w3.org/2000/svg" viewBox="123 159 77 106"><path d="M160.3 159.008a6.603 6.603 0 0 1 6.225 4.406l33.375-.002v4.4h-33.375a6.623 6.623 0 0 1-4.026 4.03l.001 18.74a37.231 37.231 0 0 1 15.7 4.638l.032.011.066.029c.248.109.533.246.853.414l.504.274c.265.149.547.314.846.498a30.38 30.38 0 0 1 4.124 3.073c2.91 2.56 5.554 5.748 7.782 9.628a37.319 37.319 0 0 1 1.72 3.313c.1.216.2.434.299.654a31.361 31.361 0 0 1 1.627 4.54l.052.198A37.411 37.411 0 0 1 197.5 228c0 4.782-.9 9.358-2.539 13.568l-.11.3a1.37 1.37 0 0 1-.073.161c-5.492 13.567-18.703 23.215-34.158 23.466l-.62.005-.618-.005a37.307 37.307 0 0 1-11.983-2.173 1.603 1.603 0 0 1-.216-.074l-.072-.03a37.497 37.497 0 0 1-10.518-5.94c-2.61-1.985-4.742-4.153-6.376-6.496l-.186-.267a37.496 37.496 0 0 1-4.881-8.67c-1.328-3.183-2.1-6.364-2.442-9.905a37.545 37.545 0 0 1-.206-3.94v-.612c.006-.517.027-1.042.062-1.573a37.295 37.295 0 0 1 1.886-9.754l.047-.159.051-.13c.459-1.326.99-2.62 1.59-3.874l.028-.066c.039-.107.09-.209.151-.305 5.846-11.906 17.82-20.279 31.783-20.98v-18.706a6.608 6.608 0 0 1-4.4-6.229 6.602 6.602 0 0 1 6.6-6.604Zm-.3 34.653-.566.004c-12.91.21-24.11 7.581-29.795 18.305 2.933 2.614 4.917 6.206 5.51 10.045.029.181.055.36.077.537l.062.528c.089.875.114 1.735.078 2.701l-.03.594-.044.625-.059.663-.073.706-.088.755-.103.811-.4 2.945-.123 1.004-.069.649-.052.603-.028.396-.013.201c-.087 1.497.005 2.52.4 3.355.42.888 1.225 1.639 2.477 2.453l.566.356.595.355.5.285 1.298.714 1.514.825.4.225.75.432c1.074.634 1.943 1.217 2.76 1.867 3.18 2.527 4.76 5.827 4.677 9.77l-.019.57-.05.983-.056.809-.07.81-.054.515-.029.239-.06.439-.014.079A34.223 34.223 0 0 0 160 262.339c13.255 0 24.78-7.55 30.502-18.576-.18.01-.362.015-.547.015a12.83 12.83 0 0 1-2.606-.283c-2.334-.486-4.643-1.578-6.05-2.869-1.636-1.502-2.78-3.718-3.409-6.573l-.083-.391-.115-.58-.145-.831-.194-1.272-.283-1.983-.1-.666-.097-.604-.095-.55-.096-.507-.099-.472-.104-.448-.112-.434-.121-.428a20.583 20.583 0 0 0-.065-.215c-.418-1.359-1.109-2.505-2.12-3.206-.891-.62-2.149-.95-3.845-.993l-.547-.005-1.833.02-.754.003-.723-.005a44.11 44.11 0 0 1-.692-.016l-.664-.026a31.785 31.785 0 0 1-.321-.017l-.622-.043a24.446 24.446 0 0 1-.3-.027l-.583-.062-.557-.076c-3.36-.512-5.34-1.844-6.969-4.789-1.751-3.166-1.825-7.287-.199-10.77 2.62-5.611 8.138-8.453 15.181-9.315a34.19 34.19 0 0 0-10.066-1.68l-.567-.004Zm-31.352 20.337A34.142 34.142 0 0 0 125.662 228c0 14.48 9.01 26.897 21.719 31.937l.407.158.036-.288c.12-1.037.215-2.435.237-3.482.07-3.277-1.203-5.921-3.86-8.033a18.28 18.28 0 0 0-1.265-.92l-.345-.225-.526-.327-.28-.168-.292-.172-.626-.357-.69-.382-2.044-1.115-.747-.42-.482-.282-.46-.28-.478-.303c-1.58-1.03-2.623-2.032-3.236-3.33-.535-1.133-.691-2.362-.621-4.038l.018-.366.026-.4.047-.595.084-.834.053-.458.134-1.051.295-2.153.15-1.16.084-.703.07-.654.016-.156.014-.154.05-.59.037-.555.007-.134.007-.132.016-.513.004-.493-.01-.478-.01-.235-.013-.234-.036-.466-.05-.469-.062-.477-.09-.555c-.545-2.964-2.043-5.75-4.236-7.897l-.066-.063Zm34.425 21.087c2.891.192 7.833 2.422 8.997 5.477 1.395 3.663-.02 8.116-3.221 10.137-1.24.783-3.572 1.483-5.759 1.483-1.55 0-3.027-.352-3.99-1.275-1.464-1.404-1.155-3.788-.718-6.033l.098-.496.05-.246c.224-1.11.437-2.157.405-2.873-.01-.218-.022-.437-.035-.654-.038-.675-.077-1.373-.036-2.025.076-1.215.44-2.094 1.115-2.686.722-.635 1.735-.9 3.094-.809Zm-.502 2.144c-.55 0-.95.098-1.166.287-.22.195-.347.587-.385 1.2-.033.522.001 1.127.037 1.767.013.226.026.453.036.68.044.981-.194 2.155-.446 3.398-.365 1.805-.82 4.05-.051 4.787 1.275 1.222 5.417.587 7.1-.475 2.363-1.493 3.397-4.806 2.355-7.542-.342-.899-1.417-1.891-2.949-2.722-1.39-.755-3.028-1.292-4.172-1.368a5.487 5.487 0 0 0-.359-.012Zm-4.254-31.232c-1.206 2.584-1.164 5.617.1 7.903 1.392 2.515 3.505 3.333 7.49 3.4l.357.004.923-.003 1.23-.019.912-.037.25-.006.3-.002c2.472 0 4.451.531 5.986 1.597 1.655 1.148 2.72 2.886 3.338 4.891.211.689.392 1.41.552 2.193l.127.654.092.514.15.935.415 2.888.04.26c.129.842.255 1.546.399 2.2.49 2.228 1.324 3.884 2.46 4.927.978.898 2.777 1.734 4.557 2.104 1.544.322 2.92.279 3.889-.095l.193-.082.067-.2c.742-2.269 1.42-5.224 1.761-8.595l.057-.599c.37-4.22.113-8.322-.913-12.168a34.043 34.043 0 0 0-1.785-4.861l-.267-.56a40.147 40.147 0 0 0-1.633-3.029 34.611 34.611 0 0 0-12.25-11.974l-.249-.006c-8.812-.215-15.843 1.973-18.548 7.766Z" id="prefix-8GM-形状结合" fill="#333" fill-rule="nonzero"/></svg></svg></g>
            <g id="icon_name_and_slogan_gap">
            </g>
            <g class="name_and_slogan" id="name_and_slogan_id">
              <g class="name"><g id="nameDefaultGroup"><path d="M249.1 252.2 Q248.6 252 247.2 251.8 Q245.9 251.5 243.9 251.4 Q242 251.2 239.5 251.1 Q237 251 234.3 250.9 L234.3 254.8 Q234.3 256.7 233.9 258 Q233.6 259.2 232.6 260.1 Q231.7 260.9 230.2 261.3 Q228.7 261.7 226.4 261.7 L219.5 261.7 L217.2 254.1 Q218.9 254.2 220.2 254.3 Q221.5 254.4 223.2 254.4 Q224.5 254.4 225.1 254 Q225.7 253.5 225.7 252.2 L225.7 250.9 Q223 251 220.3 251 Q217.7 251.1 215.5 251.3 Q213.2 251.5 211.6 251.7 Q209.9 252 209 252.2 L206.3 247.6 L208.8 243.3 L211 244.6 L225.5 244.6 L230.6 240.8 Q227.3 240.2 223.4 240.4 Q219.5 240.5 216 241.4 L213.1 237 L214 235.6 L214 232.7 L213.1 232.7 L213.1 235.6 L211 235.6 L211 232.7 L210.2 232.7 L210.2 235.6 L208 235.6 L208 229.7 L206.4 227.4 L210.3 223 L213.2 224.1 L214 224.1 Q213.6 223.1 213.2 222.1 Q212.7 221 212.2 220.1 L219.4 218.6 Q219.6 219 220 219.6 Q220.4 220.2 220.8 221 Q221.2 221.7 221.7 222.5 Q222.1 223.4 222.5 224.1 L225.5 224.1 Q224.8 221.4 223.8 218.6 L230.9 217.8 Q231.1 218.1 231.4 218.8 Q231.7 219.6 232.1 220.5 Q232.5 221.4 232.9 222.3 Q233.2 223.3 233.5 224.1 L235.2 224.1 Q235.9 223.4 236.4 222.6 Q236.9 221.8 237.5 220.7 L236.1 219.8 L237.7 217.8 L247.4 219.5 Q246.4 220.8 245.4 221.9 Q244.5 223.1 243.5 224.1 L244.8 224.1 L246.5 223 L251.5 227.4 L250.1 229.7 L250.1 235.6 L247.9 235.6 L247.9 232.7 L247 232.7 L247 235.6 L244.8 235.6 L244.8 232.7 L244.1 232.7 L244.1 235.6 L243 235.6 L245.7 238.9 L236.6 244.6 L246.2 244.6 L248.7 242.8 L251.5 247.6 L249.1 252.2 Z M216.2 233 L218.4 234.1 L238.2 234.1 L240.7 232.7 L242 234.3 L242 231.1 Q229.2 229.9 216.2 231.1 L216.2 233 Z M294 222.5 Q294 222.5 293.8 222.8 Q293.5 223 293 223.3 Q292.5 223.7 292 224.1 Q291.4 224.5 290.8 225 L293.2 224.8 L295.3 223.2 L298.3 227.2 L296.5 232.1 Q295.9 231.9 294.6 231.8 Q293.4 231.8 291.7 231.8 Q290.1 231.8 288.2 232 Q286.2 232.1 284.2 232.3 L284.3 234.8 L293.4 234 L295.5 232.3 L298.6 236.3 L296.9 241.3 Q296.1 241.1 294.3 241 L298.3 245.2 Q296.4 246.6 293.5 248.3 L298.8 251.1 Q298.4 252.4 297.9 253.7 Q297.4 255.1 296.8 256.3 Q295.2 259.7 293.2 261 Q291.2 262.3 288.8 262.3 Q286 262.3 283.5 260.8 Q280.9 259.2 279.2 255.4 Q276.9 256.3 274.6 257.1 Q272.3 258 269.8 258.7 L268.8 256.6 Q270.6 256.2 271.8 255.8 Q273.1 255.3 274.5 254.7 L274.2 254.1 Q273.3 254.5 272.5 254.8 Q271.7 255 271.1 255.2 Q270.4 255.4 269.8 255.6 Q269.1 255.7 268.4 255.8 L267.5 253.8 Q268.8 253.5 270.3 253.1 Q271.8 252.7 273.4 252.1 L273.1 251.5 Q271.8 252 270.3 252.4 Q268.8 252.8 267.3 253.1 L266.6 251.7 Q265.8 254.4 264.8 257.1 Q263.8 259.8 262.9 261.9 L254.4 258.2 Q255.3 256.8 256.3 254.9 Q257.4 253 258.4 251 Q259.4 249 260.3 247.1 Q261.1 245.2 261.7 243.8 L268.2 246.4 Q268 247.4 267.6 248.4 Q267.3 249.5 266.9 250.7 Q269.4 250 272 249.1 Q274.5 248.2 277.1 247.2 Q277 246.1 276.8 244.9 Q276.6 243.8 276.5 242.5 Q274.5 242.8 272.9 243.2 Q271.3 243.5 270.6 243.8 L267.6 239.4 L268.4 237.2 L263.1 243.6 Q261.2 241.4 258.9 239.4 Q256.6 237.3 254.6 235.9 L259 230.5 Q260.3 231.1 261.5 231.8 Q262.8 232.5 264.1 233.3 Q265.3 234.1 266.5 235 Q267.7 235.8 268.6 236.5 L269.3 234.8 L271.5 236 L275.8 235.6 Q275.7 235.1 275.6 234.5 Q275.6 234 275.6 233.4 Q273.8 233.7 272.5 234 Q271.1 234.3 270.5 234.6 L267.7 230.1 L269.4 225.6 L271.6 226.8 L275.1 226.5 L274.9 221.5 L273.1 220.7 L273.9 218.2 L283.5 218.9 Q283.6 219.9 283.6 221 Q283.7 222 283.7 223.2 Q283.7 224.4 283.8 225.7 L287.4 225.3 Q286.8 224.2 286 223.1 Q285.2 222 284.5 221 L288.8 218.3 Q290 219.1 291.5 220.3 Q293 221.5 294 222.5 Z M264.6 231.1 Q262.6 229 260.4 227 Q258.2 224.9 256.2 223.5 L260.6 218.2 Q261.8 218.8 263.1 219.5 Q264.4 220.2 265.7 221.1 Q267 221.9 268.2 222.7 Q269.4 223.5 270.3 224.3 L264.6 231.1 Z M290 241.1 Q288.9 241.2 287.6 241.3 Q286.4 241.4 285.1 241.5 L285.5 243.9 Q287.1 243.3 288.3 242.7 Q289.5 242.2 290.1 241.8 L290 241.1 Z M290.8 249.8 Q290 250.3 289.1 250.8 Q288.3 251.2 287.4 251.6 Q287.8 252.7 288.2 253 Q288.6 253.2 289 253.2 Q289.4 253.2 289.7 252.9 Q290 252.5 290.3 251.6 L290.8 249.8 Z M342.2 230.3 Q341.7 230 340.5 229.8 Q339.3 229.6 337.6 229.4 Q336 229.2 334 229.1 Q332 229 329.8 229 L329.8 251.1 L342.3 251.1 L344.7 249.4 L347.6 254.8 L345.2 260.5 Q344.4 260.1 342.5 259.9 Q340.6 259.6 337.9 259.4 Q335.2 259.2 332 259.2 Q328.7 259.1 325.3 259.1 Q321.9 259.1 318.6 259.2 Q315.4 259.3 312.6 259.5 Q309.8 259.7 307.8 259.9 Q305.8 260.2 305.1 260.5 L302.4 254.8 L304.8 249.4 L307 251.1 L320.3 251.1 L320.3 229.1 Q318.2 229.2 316.2 229.3 Q314.3 229.4 312.6 229.5 Q311 229.7 309.8 229.9 Q308.6 230.1 308 230.3 L305.3 224.8 L307.7 219.4 L309.9 221.1 L339.4 221.1 L341.8 219.4 L344.6 224.8 L342.2 230.3 Z M391.1 255.7 Q390.7 255.6 389.8 255.4 Q388.9 255.3 387.7 255.2 Q386.5 255.2 385.1 255.1 Q383.6 255.1 382.1 255.1 L382.1 262.1 L379.8 262.1 L379.8 257.8 L378.8 257.8 L378.8 262.1 L376.4 262.1 L376.4 257.8 L375.5 257.8 L375.5 262.1 L373.2 262.1 L373.2 235.5 Q372.1 237.2 371 238.7 Q369.9 240.3 368.7 241.6 L366.6 239.5 Q367.1 239 367.7 238.3 Q368.3 237.6 368.8 236.9 Q369.4 236.3 369.9 235.7 Q370.3 235.1 370.5 234.7 L370 234.2 Q369.4 235.2 368.3 236.6 Q367.1 238 366.2 239.1 L364.2 237.2 Q366.6 234.9 368 233 L367.6 232.7 Q366.3 234.5 363.9 236.5 L363.9 262.1 L361.7 262.1 L361.7 257.8 L360.8 257.8 L360.8 262.1 L358.4 262.1 L358.4 257.8 L357.6 257.8 L357.6 262.1 L355.4 262.1 L355.4 243.8 Q353.9 245.7 352.5 247 L351.9 243.6 Q352.5 242.8 353.4 241.9 Q354.3 240.9 355.1 239.8 Q356 238.8 356.7 237.8 Q357.5 236.8 357.8 236.1 L357.3 235.6 Q356.8 236.5 356.1 237.4 Q355.4 238.4 354.6 239.4 Q353.9 240.3 353.1 241.3 Q352.3 242.2 351.6 242.8 L351.2 239.5 Q352.5 238.2 353.5 236.9 Q354.6 235.6 355.3 234.5 L354.9 234.2 Q354.2 235.2 353.3 236.4 Q352.3 237.6 351.1 238.8 L350.4 235.4 Q351.7 234 353 232.2 Q354.2 230.4 355.3 228.6 Q356.3 226.8 357.1 225.2 Q357.9 223.5 358.3 222.3 L356.2 221 L359.1 218.5 L366.9 221.4 Q366.7 223.1 365.9 225.3 Q365.1 227.5 363.9 230.1 L363.9 233.3 Q365.2 231.8 366.3 230.1 Q367.5 228.4 368.4 226.8 Q369.4 225.1 370 223.7 Q370.8 222.3 371.1 221.3 L369.7 220.1 L372.6 217.8 L380.1 219.3 Q379.8 221.1 378.9 223.7 L390.1 223.7 L392.4 222.2 L395 227.1 L392.8 232.3 Q392.3 232.1 391.2 232 Q390.1 231.9 388.7 231.8 Q387.3 231.8 385.5 231.7 Q383.8 231.7 382.1 231.7 L382.1 235.5 L388.5 235.5 L390.8 233.9 L393.4 238.9 L391.1 244 Q390.7 243.8 389.8 243.7 Q388.9 243.6 387.7 243.5 Q386.5 243.5 385.1 243.4 Q383.6 243.4 382.1 243.4 L382.1 247.2 L388.5 247.2 L390.8 245.6 L393.4 250.6 L391.1 255.7 Z M441.7 261.6 Q441.2 261.3 439.2 261 Q437.3 260.8 434.5 260.7 Q431.7 260.5 428.2 260.5 Q424.7 260.5 421.1 260.5 Q417.5 260.5 414.1 260.5 Q410.6 260.6 407.7 260.8 Q404.9 260.9 402.9 261.1 Q400.9 261.3 400.3 261.6 L398.3 257 L400.1 252.8 L401.8 254.2 L416.7 254.2 L416.7 252 Q414.2 252 412 252.1 Q409.8 252.2 408 252.3 Q406.2 252.4 404.9 252.6 Q403.7 252.7 403.2 252.9 L401.4 248.7 L403 244.7 L403.1 244.7 L401.3 238.2 Q402.1 238.3 403.3 238.3 Q404.4 238.3 405.8 238.3 Q406.4 237.7 406.9 237.2 Q407.4 236.6 407.8 236.1 Q405.2 236.3 404.4 236.6 L402.6 232.4 L403 231.5 L403 229.4 L402.2 229.4 L402.2 232.1 L400 232.1 L400 226.1 L398.4 224 L403.9 218.9 L407.7 221 L416.6 221 Q415.4 219.8 414.2 218.9 L420.5 217.1 Q422.1 217.9 423.6 218.9 Q425.2 219.8 426.8 221 L433.6 221 L436.9 218.9 L443.3 224 L441.8 226.1 L441.8 232.1 L439.9 232.1 L440.1 232.4 L438.4 236.6 Q437.5 236.2 434.4 236 Q435.9 237.2 437.5 238.5 Q439.1 239.7 440.5 241 L435.2 245.9 L436.7 245.9 L438.4 244.7 L440.4 248.7 L438.7 252.9 Q438.3 252.7 437.1 252.5 Q435.9 252.3 434.1 252.2 Q432.3 252.1 430 252 Q427.8 252 425.4 251.9 L425.4 254.2 L439.5 254.2 L441.4 252.8 L443.5 257 L441.7 261.6 Z M408.2 229.7 L433.7 229.7 L433.7 227.7 Q421 226.6 408.2 227.7 L408.2 229.7 Z M425 235.6 Q421.7 235.5 418.3 235.6 Q417.6 236.3 416.9 236.9 Q416.3 237.6 415.5 238.1 Q418.5 238.1 421.5 238 Q424.5 237.9 427.1 237.8 L425 235.6 Z M431.8 243.1 Q430.4 243.3 428.8 243.4 Q427.1 243.6 425.4 243.8 L425.4 245.9 L434.1 245.9 Q433.5 245.2 433 244.5 Q432.4 243.8 431.8 243.1 Z M416.7 244.4 Q412.8 244.7 409.3 244.8 Q405.9 245 403.5 245 L404.6 245.9 L416.7 245.9 L416.7 244.4 Z M438.8 229.9 L439.7 231.6 L439.7 229.4 L438.8 229.4 L438.8 229.9 Z M435.8 229.7 L436.4 229.7 L436.6 229.5 L436.6 229.3 L435.8 229.3 L435.8 229.7 Z M405.4 229.3 L405.8 229.7 L406 229.7 L406 229.3 L405.4 229.3 Z" style="" fill="#181818" transform="matrix(1,0,0,1,0,0)"/></g></g>
              <g class="slogan"><g id="sloganDefaultGroup"><path d="M222.9 273.8 L222.9 274.8 L213.5 274.8 L213.5 273.8 L217.5 273.8 L217.5 271.9 L214.4 271.9 L214.4 270.8 L217.5 270.8 L217.5 269 L218.7 269 L218.7 270.8 L222.1 270.8 L222.1 271.9 L218.7 271.9 L218.7 273.8 L222.9 273.8 Z M212.4 272.6 Q212.3 272.3 212 271.9 Q211.8 271.5 211.5 271.1 Q211.2 270.7 211 270.4 Q210.7 270 210.5 269.8 L211.4 269.2 Q211.5 269.4 211.8 269.7 Q212.1 270.1 212.4 270.4 Q212.7 270.8 212.9 271.2 Q213.2 271.5 213.3 271.8 L212.4 272.6 Z M212.4 279.9 Q212.6 279.8 212.8 279.6 Q212.9 279.4 213.1 279.2 Q213.3 279 213.5 278.8 Q213.7 278.7 213.7 278.6 L214 279.8 Q213.9 279.9 213.7 280.1 Q213.4 280.3 213.1 280.6 Q212.9 280.8 212.6 281.1 Q212.4 281.3 212.2 281.4 Q212.1 281.5 211.9 281.7 Q211.7 281.9 211.6 282.1 L210.9 281.3 Q211.1 281 211.2 280.8 Q211.3 280.6 211.3 280.3 L211.3 274.8 L209.5 274.8 L209.5 273.7 L212.4 273.7 L212.4 279.9 Z M220.6 276.4 L222.6 276.4 L222.6 277.4 L220.6 277.4 L220.6 280.5 Q220.6 281 220.5 281.3 Q220.4 281.7 220.2 281.9 Q219.9 282.1 219.5 282.2 Q219.1 282.3 218.4 282.3 L217.5 282.3 L217.2 281.2 L218.2 281.2 Q218.6 281.2 218.9 281.1 Q219.1 281 219.2 280.9 Q219.4 280.8 219.4 280.6 Q219.5 280.4 219.5 280.1 L219.5 277.4 L214 277.4 L214 276.4 L219.5 276.4 L219.5 275.2 L220.6 275.3 L220.6 276.4 Z M215.6 277.8 Q215.8 278 216.1 278.2 Q216.4 278.5 216.7 278.8 Q217 279.1 217.2 279.4 Q217.5 279.7 217.6 280 L216.9 280.8 Q216.7 280.6 216.4 280.2 Q216.2 279.9 215.9 279.6 Q215.6 279.2 215.3 279 Q215.1 278.7 214.9 278.5 L215.6 277.8 Z M241.4 269.1 Q241.7 269.3 242 269.5 Q242.4 269.8 242.8 270.1 Q243.2 270.4 243.5 270.7 Q243.8 271 244.1 271.2 L243.4 272.2 Q243.2 271.9 242.9 271.6 Q242.5 271.3 242.2 271 Q241.8 270.7 241.4 270.4 Q241.1 270.1 240.8 270 L241.4 269.1 Z M250.3 270.7 L250.3 272.5 L253 272.5 L253 282.4 L252 282.4 L252 281.6 L245.5 281.6 L245.5 282.4 L244.4 282.4 L244.4 272.5 L247 272.5 L247 270.7 L244 270.7 L244 269.7 L253.8 269.7 L253.8 270.7 L250.3 270.7 Z M249.3 270.7 L248 270.7 L248 272.5 L249.3 272.5 L249.3 270.7 Z M241 272.4 Q241.3 272.6 241.7 272.9 Q242 273.1 242.4 273.5 Q242.8 273.8 243.2 274.1 Q243.5 274.4 243.7 274.6 L243.1 275.7 Q242.9 275.4 242.5 275 Q242.2 274.7 241.8 274.4 Q241.4 274 241 273.7 Q240.7 273.4 240.4 273.3 L241 272.4 Z M245.5 273.5 L245.5 278.1 L252 278.1 L252 276.8 L250.7 276.8 Q250.3 276.8 250.1 276.8 Q249.8 276.7 249.7 276.5 Q249.5 276.4 249.4 276.1 Q249.3 275.8 249.3 275.4 L249.3 273.5 L248 273.5 Q247.9 274.4 247.9 275 Q247.8 275.5 247.6 276 Q247.4 276.4 247 276.8 Q246.7 277.1 246.2 277.5 L245.6 276.8 Q246 276.4 246.3 276.2 Q246.6 275.9 246.7 275.5 Q246.9 275.2 246.9 274.7 Q247 274.3 247 273.5 L245.5 273.5 Z M250.3 273.5 L250.3 275 Q250.3 275.5 250.5 275.7 Q250.6 275.8 251 275.8 L252 275.8 L252 273.5 L250.3 273.5 Z M243.1 276.8 L243.4 276.9 Q243.4 277.4 243.2 278.2 Q243 278.9 242.8 279.7 Q242.5 280.4 242.3 281.1 Q242 281.8 241.8 282.3 L240.8 282 Q241 281.5 241.2 280.8 Q241.5 280.1 241.7 279.3 Q241.9 278.6 242.1 277.9 Q242.3 277.1 242.4 276.6 L243.1 276.8 Z M252 280.6 L252 279.1 L245.5 279.1 L245.5 280.6 L252 280.6 Z M277.4 281 Q279.2 281.1 281 281 Q282.7 281 284.6 280.9 L284.3 282 Q282.5 282.1 280.8 282.1 Q279.1 282.1 277.3 282 Q276.5 282 275.8 281.9 Q275.2 281.8 274.6 281.5 Q274.1 281.2 273.7 280.7 Q273.3 280.2 272.9 279.6 Q272.7 280.3 272.5 281 Q272.2 281.7 271.8 282.5 L270.9 282.2 Q271.3 281.4 271.6 280.7 Q271.9 280 272 279.3 Q272.2 278.6 272.3 277.8 Q272.4 277 272.4 275.9 L273.4 275.9 Q273.4 276.6 273.3 277.1 Q273.3 277.6 273.2 278.1 Q273.5 278.8 273.8 279.3 Q274.1 279.8 274.4 280.1 L274.4 274.9 L271.4 274.9 L271.4 273.9 L274.1 273.9 L274.1 271.9 L271.9 271.9 L271.9 270.9 L274.1 270.9 L274.1 269 L275.1 269.1 L275.1 270.9 L277.2 270.9 L277.2 271.9 L275.1 271.9 L275.1 273.9 L277.3 273.9 L277.3 274.9 L275.4 274.9 L275.4 277.2 L277.2 277.2 L277.2 278.2 L275.4 278.2 L275.4 280.7 Q275.8 280.8 276.3 280.9 Q276.8 281 277.4 281 Z M276.6 273.2 Q277.8 272.4 278.7 271.3 Q279.5 270.3 280.1 269.2 L281 269.2 Q281.6 270.4 282.5 271.4 Q283.4 272.4 284.7 273.3 L284.1 274.2 Q283.4 273.6 282.9 273.1 Q282.4 272.7 281.9 272.2 Q281.5 271.8 281.2 271.3 Q280.8 270.8 280.6 270.3 Q280 271.3 279.2 272.2 Q278.4 273 277.3 273.9 L276.6 273.2 Z M281.7 273.2 Q281 273.9 280.1 274.6 Q279.2 275.2 278.1 275.8 L277.7 274.9 Q278.8 274.4 279.6 273.8 Q280.5 273.2 281.2 272.5 L281.7 273.2 Z M277.6 277.3 Q279.1 276.8 280.2 276 Q281.4 275.2 282.3 274.4 L282.7 275.1 Q281.9 276 280.7 276.8 Q279.5 277.6 278.1 278.2 L277.6 277.3 Z M277.1 279.9 Q278.1 279.6 279 279.2 Q279.9 278.9 280.6 278.5 Q281.4 278.1 282 277.6 Q282.6 277.2 283.2 276.6 L283.7 277.4 Q283.1 278 282.4 278.5 Q281.7 279 281 279.4 Q280.2 279.8 279.4 280.1 Q278.5 280.4 277.5 280.7 L277.1 279.9 Z M315 278.9 L309.7 278.9 L309.7 282.3 L308.6 282.3 L308.6 278.9 L301.9 278.9 L301.9 277.8 L304.1 277.8 L304.1 273.8 L308.6 273.8 L308.6 271.3 L305.1 271.3 Q304.6 272.1 303.9 272.9 Q303.3 273.7 302.6 274.5 L301.8 273.6 Q302.9 272.5 303.8 271.2 Q304.7 269.9 305.2 268.6 L306.4 268.8 Q306.2 269.2 306.1 269.5 Q305.9 269.8 305.7 270.2 L314.5 270.2 L314.5 271.3 L309.7 271.3 L309.7 273.8 L314.1 273.8 L314.1 274.9 L309.7 274.9 L309.7 277.8 L315 277.8 L315 278.9 Z M308.6 277.8 L308.6 274.9 L305.2 274.9 L305.2 277.8 L308.6 277.8 Z M335.3 272.7 Q334.9 273.2 334.3 273.7 Q333.8 274.1 333.2 274.7 L332.5 273.9 Q333.8 272.8 334.9 271.5 Q336 270.2 336.7 268.9 L337.6 269.3 Q337.3 269.9 337 270.4 Q336.7 270.9 336.4 271.3 L336.4 276.8 L335.3 276.8 L335.3 272.7 Z M336.6 273.6 Q337.4 273.3 338.1 273.1 Q338.9 272.8 339.6 272.5 L339.6 269 L340.8 269.1 L340.8 272 Q341.8 271.6 342.8 271 Q343.8 270.5 344.7 269.8 L345.2 270.8 Q344.2 271.5 343.1 272.1 Q342 272.7 340.8 273.3 L340.8 274.4 Q340.8 274.9 341 275.1 Q341.2 275.3 341.7 275.4 Q342.5 275.4 343.4 275.4 Q344 275.3 344.2 275.2 Q344.4 275 344.5 274.7 Q344.6 274.4 344.6 274.1 Q344.6 273.8 344.7 273.5 L345.7 273.8 Q345.7 274.3 345.6 274.7 Q345.5 275.1 345.4 275.5 Q345.3 275.9 344.9 276.1 Q344.5 276.3 343.6 276.4 Q342.4 276.5 341.2 276.4 Q340.8 276.4 340.5 276.3 Q340.2 276.2 340 276 Q339.8 275.8 339.7 275.5 Q339.6 275.2 339.6 274.7 L339.6 273.7 Q338.4 274.2 337.1 274.6 L336.6 273.6 Z M346 279.3 L340 279.3 L340 282.6 L338.8 282.6 L338.8 279.3 L332.9 279.3 L332.9 278.2 L338.8 278.2 L338.8 276.5 L340 276.5 L340 278.2 L346 278.2 L346 279.3 Z" style="" fill="#181818" transform="matrix(1,0,0,1,0,0)"/></g></g>
            </g>
            <g class="border">
            </g>
          </g>
          
          <defs id="defs">
            <mask xmlns="http://www.w3.org/2000/svg" id="mask">
                <rect id="showAll" fill="white" x="123" y="148" width="149" height="117"/>
                <rect id="hideNameBg" fill="black" x="0" y="0" width="0" height="0" stroke-width="2" stroke="black"/>
                <rect id="hideSloganBg" fill="black" x="0" y="0" width="0" height="0" stroke-width="2" stroke="black"/>
            </mask>
          </defs>
          
        </g>
        </svg>